#!OML:ASF \\sashay\E\Suitcase\Project 1\Capture day 1\Session 1\Male1.ASF
:FULLY-SPECIFIED
:DEGREES
293
root -0.22093 17.361 20.4671 4.76206 13.3108 -2.29896
lowerback -0.604376 -1.48095 1.63478
upperback -0.765961 -1.97448 1.09423
thorax -0.462126 -0.991964 0.20097
lowerneck 1.51921 -4.62247 -14.1377
upperneck 31.5245 -5.42962 0.729322
head 10.3812 -4.00601 2.2359
rclavicle 4.84227e-015 -4.67144e-015
rhumerus -28.4116 -32.6978 -65.4118
rradius 19.2635
rwrist -1.46291
rhand -13.2577 22.3346
rfingers 7.12502
rthumb 12.8448 -7.2502
lclavicle 4.84227e-015 -4.67144e-015
lhumerus -32.6493 -1.98217 85.8796
lradius 32.5617
lwrist -4.67984
lhand -5.62384 43.0317
lfingers 7.12502
lthumb 20.1939 72.0021
rfemur -1.16485 -4.21246 26.5377
rtibia 9.67236
rfoot -13.1259 -17.8047
rtoes 17.939
lfemur -6.21205 -8.477 -11.7699
ltibia 14.578
lfoot -14.531 -0.277608
ltoes -8.10645
294
root -0.226201 17.3584 20.4734 4.88767 13.2236 -2.26571
lowerback -0.670327 -1.49716 1.53402
upperback -0.789969 -1.99698 1.1078
thorax -0.445992 -1.00269 0.269571
lowerneck 1.25642 -4.5571 -13.9573
upperneck 31.7189 -5.28743 0.655051
head 10.482 -3.93398 2.18633
rclavicle 7.3395e-015 2.93207e-015
rhumerus -28.8673 -32.2846 -65.4989
rradius 19.1095
rwrist -2.00127
rhand -13.4937 22.7401
rfingers 7.12502
rthumb 12.6172 -6.8588
lclavicle 7.3395e-015 2.93207e-015
lhumerus -32.5652 -2.02216 85.923
lradius 31.8591
lwrist -4.82992
lhand -6.10533 42.6294
lfingers 7.12502
lthumb 19.7311 71.6479
rfemur -1.38096 -4.11958 26.5501
rtibia 9.87489
rfoot -13.2249 -17.7716
rtoes 17.2904
lfemur -6.2592 -8.50746 -11.765
ltibia 14.4766
lfoot -14.3648 -0.189845
ltoes -6.87911
295
root -0.226436 17.3612 20.4794 4.92778 13.1853 -2.04383
lowerback -0.61453 -1.43547 1.31996
upperback -0.674716 -1.91507 1.06464
thorax -0.353101 -0.960225 0.344682
lowerneck 0.711762 -4.62043 -13.7036
upperneck 31.9528 -5.27769 0.547808
head 10.659 -3.91615 2.09309
rclavicle 9.99204e-015 -1.49089e-015
rhumerus -29.0944 -31.5709 -65.7559
rradius 19.0218
rwrist -3.01215
rhand -13.7259 21.9414
rfingers 7.12502
rthumb 12.3934 -7.67119
lclavicle 9.99204e-015 -1.49089e-015
lhumerus -32.3213 -1.93289 85.9761
lradius 31.5913
lwrist -4.89305
lhand -4.69708 43.3183
lfingers 7.12502
lthumb 21.0844 72.1919
rfemur -1.5266 -4.10704 26.3162
rtibia 10.2087
rfoot -13.3829 -17.7932
rtoes 18.148
lfemur -6.11369 -8.50759 -12.0074
ltibia 14.272
lfoot -14.5956 -0.144672
ltoes -8.61942
296
root -0.231352 17.3572 20.4857 4.99826 13.0459 -2.00235
lowerback -0.532237 -1.46953 1.22722
upperback -0.728531 -1.95765 1.08368
thorax -0.450654 -0.981542 0.419184
lowerneck 0.576287 -4.48854 -13.6716
upperneck 31.9777 -5.0821 0.575425
head 10.6761 -3.82148 2.11428
rclavicle 5.25226e-015 -8.05078e-015
rhumerus -29.6006 -31.6241 -65.5917
rradius 18.7002
rwrist -2.77688
rhand -13.7776 22.1999
rfingers 7.12502
rthumb 12.3436 -7.41574
lclavicle 5.25226e-015 -8.05078e-015
lhumerus -32.6333 -1.63339 85.88
lradius 31.6728
lwrist -5.01577
lhand -5.04696 43.4452
lfingers 7.12502
lthumb 20.7483 72.3559
rfemur -1.733 -3.98766 26.3074
rtibia 10.5299
rfoot -13.5732 -17.7612
rtoes 17.8895
lfemur -6.03303 -8.50561 -12.0346
ltibia 14.0793
lfoot -14.3336 -0.0685868
ltoes -6.61769
297
root -0.231388 17.3564 20.4951 5.0456 12.9853 -1.82883
lowerback -0.489865 -1.41735 1.09529
upperback -0.703596 -1.88764 1.03968
thorax -0.445919 -0.946006 0.448705
lowerneck 0.331111 -4.54539 -13.425
upperneck 32.013 -5.06994 0.303204
head 10.7189 -3.8144 1.96933
rclavicle 1.14301e-015 -1.50579e-014
rhumerus -30.3861 -33.1095 -64.6756
rradius 18.2878
rwrist -1.42219
rhand -13.2091 21.4315
rfingers 7.12502
rthumb 12.8916 -8.15037
lclavicle 1.14301e-015 -1.50579e-014
lhumerus -32.575 -1.58507 85.8934
lradius 31.4661
lwrist -5.46879
lhand -4.58915 43.2783
lfingers 7.12502
lthumb 21.1881 72.1404
rfemur -1.8178 -4.04431 26.1145
rtibia 10.8008
rfoot -13.6543 -17.6309
rtoes 18.1662
lfemur -5.88188 -8.49039 -12.2241
ltibia 13.8808
lfoot -14.4295 0.014551
ltoes -8.28282
298
root -0.2343 17.3579 20.5043 5.1836 12.9086 -1.61536
lowerback -0.498688 -1.34006 0.818959
upperback -0.745223 -1.78373 1.05687
thorax -0.474511 -0.892803 0.621221
lowerneck 0.18408 -4.50951 -13.6069
upperneck 32.1594 -5.04589 0.564006
head 10.8152 -3.80158 2.09392
rclavicle -4.68014e-014 5.56597e-015
rhumerus -31.3065 -34.2574 -63.6797
rradius 17.8753
rwrist -0.127016
rhand -13.3873 21.6986
rfingers 7.12502
rthumb 12.7198 -7.89402
lclavicle -4.68014e-014 5.56597e-015
lhumerus -32.8011 -1.67196 86.1096
lradius 31.4087
lwrist -5.6128
lhand -4.60963 43.4901
lfingers 7.12502
lthumb 21.1684 72.3544
rfemur -1.95312 -3.97996 25.9063
rtibia 10.8928
rfoot -13.8764 -17.5534
rtoes 16.6461
lfemur -5.91231 -8.53425 -12.4378
ltibia 13.8346
lfoot -14.3566 0.106752
ltoes -7.30148
